<svg xmlns="http://www.w3.org/2000/svg" width="1040" height="620" viewBox="0 0 1040 620">
<rect x="0" y="0" width="1040" height="620" fill="white"/>
<text x="520.0" y="32" text-anchor="middle" font-family="Arial" font-size="22" font-weight="700">Detection metrics by variant</text>
<rect x="100" y="40" width="13" height="13" fill="#7570b3"/>
<text x="120" y="51" font-family="Arial" font-size="13">mAP50</text>
<rect x="200" y="40" width="13" height="13" fill="#66a61e"/>
<text x="220" y="51" font-family="Arial" font-size="13">mAP50-95</text>
<line x1="80" y1="525.00" x2="1010" y2="525.00" stroke="#dddddd"/>
<text x="70" y="529.00" text-anchor="end" font-family="Arial" font-size="12">0.00</text>
<line x1="80" y1="411.25" x2="1010" y2="411.25" stroke="#dddddd"/>
<text x="70" y="415.25" text-anchor="end" font-family="Arial" font-size="12">0.15</text>
<line x1="80" y1="297.50" x2="1010" y2="297.50" stroke="#dddddd"/>
<text x="70" y="301.50" text-anchor="end" font-family="Arial" font-size="12">0.29</text>
<line x1="80" y1="183.75" x2="1010" y2="183.75" stroke="#dddddd"/>
<text x="70" y="187.75" text-anchor="end" font-family="Arial" font-size="12">0.44</text>
<line x1="80" y1="70.00" x2="1010" y2="70.00" stroke="#dddddd"/>
<text x="70" y="74.00" text-anchor="end" font-family="Arial" font-size="12">0.58</text>
<rect x="93.53" y="118.90" width="28.75" height="406.10" fill="#7570b3"/>
<rect x="122.27" y="236.86" width="28.75" height="288.14" fill="#66a61e"/>
<text x="122.27" y="558" text-anchor="middle" font-family="Arial" font-size="12">original</text>
<rect x="178.07" y="120.87" width="28.75" height="404.13" fill="#7570b3"/>
<rect x="206.82" y="238.45" width="28.75" height="286.55" fill="#66a61e"/>
<text x="206.82" y="558" text-anchor="middle" font-family="Arial" font-size="12">q94</text>
<rect x="262.62" y="122.02" width="28.75" height="402.98" fill="#7570b3"/>
<rect x="291.36" y="239.51" width="28.75" height="285.49" fill="#66a61e"/>
<text x="291.36" y="558" text-anchor="middle" font-family="Arial" font-size="12">q88</text>
<rect x="347.16" y="129.11" width="28.75" height="395.89" fill="#7570b3"/>
<rect x="375.91" y="246.07" width="28.75" height="278.93" fill="#66a61e"/>
<text x="375.91" y="558" text-anchor="middle" font-family="Arial" font-size="12">q75</text>
<rect x="431.71" y="148.10" width="28.75" height="376.90" fill="#7570b3"/>
<rect x="460.45" y="261.95" width="28.75" height="263.05" fill="#66a61e"/>
<text x="460.45" y="558" text-anchor="middle" font-family="Arial" font-size="12">q50</text>
<rect x="516.25" y="206.17" width="28.75" height="318.83" fill="#7570b3"/>
<rect x="545.00" y="310.32" width="28.75" height="214.68" fill="#66a61e"/>
<text x="545.00" y="558" text-anchor="middle" font-family="Arial" font-size="12">q25</text>
<rect x="600.80" y="118.75" width="28.75" height="406.25" fill="#7570b3"/>
<rect x="629.55" y="236.90" width="28.75" height="288.10" fill="#66a61e"/>
<text x="629.55" y="558" text-anchor="middle" font-family="Arial" font-size="12">b7</text>
<rect x="685.35" y="134.57" width="28.75" height="390.43" fill="#7570b3"/>
<rect x="714.09" y="250.26" width="28.75" height="274.74" fill="#66a61e"/>
<text x="714.09" y="558" text-anchor="middle" font-family="Arial" font-size="12">b4</text>
<rect x="769.89" y="181.06" width="28.75" height="343.94" fill="#7570b3"/>
<rect x="798.64" y="287.03" width="28.75" height="237.97" fill="#66a61e"/>
<text x="798.64" y="558" text-anchor="middle" font-family="Arial" font-size="12">b3</text>
<rect x="854.44" y="297.05" width="28.75" height="227.95" fill="#7570b3"/>
<rect x="883.18" y="372.97" width="28.75" height="152.03" fill="#66a61e"/>
<text x="883.18" y="558" text-anchor="middle" font-family="Arial" font-size="12">b2</text>
<rect x="938.98" y="421.01" width="28.75" height="103.99" fill="#7570b3"/>
<rect x="967.73" y="460.24" width="28.75" height="64.76" fill="#66a61e"/>
<text x="967.73" y="558" text-anchor="middle" font-family="Arial" font-size="12">b1</text>
<line x1="80" y1="525" x2="1010" y2="525" stroke="#333333" stroke-width="1.5"/>
<line x1="80" y1="70" x2="80" y2="525" stroke="#333333" stroke-width="1.5"/>
<text x="24" y="297.5" text-anchor="middle" transform="rotate(-90 24 297.5)" font-family="Arial" font-size="15">Detection metric</text>
</svg>